<?xml version="1.0" standalone="no"?>
<!DOCTYPE svg PUBLIC "-//W3C//DTD SVG 20010904//EN"
 "http://www.w3.org/2000/svg">
<svg version="1.0" xmlns="http://www.w3.org/2000/svg"
 width="128.000000pt" height="128.000000pt" viewBox="0 0 128.000000 128.000000"
 preserveAspectRatio="xMidYMid meet">
<metadata>
Created by potrace 1.15, written by Peter Selinger 2001-2017
</metadata>
<g transform="translate(0.000000,128.000000) scale(0.100000,-0.100000)"
fill="color">
<path d="M300 1124 c-82 -35 -140 -121 -148 -220 -4 -52 0 -71 21 -118 44 -96
118 -146 217 -146 136 0 233 104 233 250 0 74 -17 121 -62 173 -63 71 -176 98
-261 61z"/>
<path d="M872 1100 c-75 -18 -136 -83 -151 -163 -26 -141 66 -262 199 -261
119 0 201 87 201 214 1 63 -17 107 -60 153 -47 52 -121 74 -189 57z"/>
<path d="M793 621 c-28 -9 -68 -30 -87 -45 l-37 -28 52 -56 c59 -65 107 -159
117 -229 l7 -48 218 -3 217 -2 0 74 c0 163 -97 296 -249 342 -64 19 -175 17
-238 -5z"/>
<path d="M285 557 c-72 -19 -126 -50 -178 -102 -67 -66 -99 -140 -105 -236
l-5 -79 393 0 393 0 -6 74 c-11 146 -106 278 -235 326 -70 27 -188 34 -257 17z"/>
</g>
</svg>
